<?xml version="1.0" standalone="no"?>
<!DOCTYPE svg PUBLIC "-//W3C//DTD SVG 20010904//EN"
 "http://www.w3.org/TR/2001/REC-SVG-20010904/DTD/svg10.dtd">
<svg version="1.0" xmlns="http://www.w3.org/2000/svg"
 width="593.000000pt" height="789.000000pt" viewBox="0 0 593.000000 789.000000"
 preserveAspectRatio="xMidYMid meet">
<metadata>
Created by potrace 1.16, written by Peter Selinger 2001-2019
</metadata>
<g transform="translate(0.000000,789.000000) scale(0.100000,-0.100000)"
fill="#000000" stroke="none">
<path d="M2286 7873 c-11 -3 -26 -11 -34 -19 -7 -8 -20 -14 -28 -14 -8 0 -14
-4 -14 -8 0 -5 -20 -22 -45 -40 -25 -17 -45 -38 -45 -46 0 -7 -6 -16 -13 -19
-7 -2 -21 -22 -32 -43 -11 -22 -24 -42 -29 -45 -4 -4 -11 -27 -13 -53 -3 -26
-10 -49 -14 -52 -12 -7 -12 -134 0 -134 5 0 12 -27 16 -60 4 -33 11 -60 15
-60 5 0 11 -18 15 -40 4 -22 11 -40 15 -40 5 0 11 -13 15 -30 4 -16 11 -30 16
-30 5 0 9 -5 9 -12 0 -13 61 -111 72 -116 5 -2 8 -9 8 -16 0 -6 9 -19 20 -29
11 -9 20 -24 20 -32 0 -8 5 -15 10 -15 6 0 14 -8 17 -17 4 -10 12 -23 17 -29
6 -6 18 -22 26 -34 8 -13 32 -41 53 -62 34 -35 41 -38 92 -38 33 0 59 5 67 14
11 11 17 8 35 -20 13 -18 23 -38 23 -43 0 -6 4 -11 9 -11 5 0 12 -15 15 -34 4
-19 12 -36 18 -38 17 -6 17 -190 1 -195 -7 -3 -13 -11 -13 -18 0 -18 -93 -111
-119 -120 -12 -3 -21 -10 -21 -15 0 -5 -13 -11 -30 -15 -16 -4 -30 -10 -30
-15 0 -5 -13 -11 -30 -15 -16 -4 -30 -10 -30 -15 0 -4 -18 -11 -40 -15 -22 -4
-40 -11 -40 -15 0 -5 -13 -11 -30 -15 -16 -4 -30 -11 -30 -16 0 -5 -7 -9 -15
-9 -8 0 -15 -4 -15 -10 0 -5 -11 -12 -24 -16 -14 -3 -27 -12 -30 -20 -3 -8
-11 -14 -17 -14 -10 0 -83 -72 -114 -112 -29 -38 -45 -70 -45 -92 0 -13 -5
-26 -11 -28 -15 -5 -16 -205 -1 -220 7 -7 12 -19 12 -29 0 -18 61 -142 73
-147 4 -2 7 -10 7 -18 0 -8 7 -17 15 -20 8 -3 17 -15 21 -26 7 -23 179 -198
194 -198 4 0 22 -13 38 -30 17 -17 38 -30 46 -30 29 0 17 31 -29 76 -24 25
-52 58 -62 75 -9 16 -21 29 -25 29 -4 0 -8 5 -8 11 0 6 -13 28 -30 49 -17 21
-30 43 -30 49 0 6 -4 11 -9 11 -5 0 -12 14 -16 30 -4 17 -10 30 -15 30 -5 0
-11 14 -15 31 -4 17 -13 42 -21 57 -8 15 -14 45 -14 68 0 22 -5 45 -11 51 -9
9 -9 20 -1 40 6 15 13 45 17 67 7 42 10 47 72 109 67 67 84 78 190 123 17 8
36 14 42 14 6 0 11 4 11 9 0 5 14 12 30 16 17 4 30 11 30 16 0 5 7 9 15 9 8 0
15 4 15 9 0 5 14 12 30 16 17 4 30 10 30 15 0 5 10 12 23 16 28 9 147 129 147
149 0 8 4 15 9 15 5 0 12 12 16 27 3 15 12 31 18 35 15 9 15 197 0 206 -6 4
-14 22 -18 40 -11 52 -48 115 -102 170 -27 29 -30 38 -22 59 15 40 11 133 -6
139 -8 4 -15 11 -15 16 0 6 -11 21 -25 34 -14 13 -25 27 -25 33 0 5 -6 16 -13
23 -6 7 -23 30 -37 50 -14 21 -28 38 -32 38 -5 0 -8 7 -8 15 0 7 -6 18 -12 22
-7 4 -22 25 -32 46 -11 20 -23 37 -27 37 -4 0 -10 14 -14 30 -4 17 -10 30 -15
30 -5 0 -12 15 -15 33 -4 17 -12 38 -18 45 -5 7 -12 46 -15 87 l-5 75 27 0
c14 0 26 -4 26 -10 0 -5 6 -10 14 -10 18 0 76 -57 76 -75 0 -7 7 -15 15 -19 8
-3 15 -12 15 -21 0 -8 4 -15 10 -15 5 0 12 -11 16 -25 3 -14 10 -25 14 -25 4
0 11 -11 14 -25 9 -34 36 -65 58 -65 10 0 18 -4 18 -10 0 -5 9 -10 19 -10 11
0 23 5 26 10 3 6 17 10 31 10 14 0 27 7 30 15 4 8 12 15 19 15 7 0 29 16 49
35 21 19 44 35 52 35 8 0 14 5 14 10 0 6 11 10 25 10 20 0 25 -5 25 -25 0 -14
-4 -33 -9 -43 -6 -9 -13 -34 -16 -54 -3 -21 -10 -38 -15 -38 -4 0 -11 -13 -15
-30 -4 -16 -10 -30 -15 -30 -5 0 -12 -10 -16 -22 -7 -23 -42 -57 -59 -58 -15
0 -99 -98 -107 -123 -21 -72 0 -125 65 -157 22 -11 32 -12 47 -2 11 7 26 12
34 12 8 0 26 11 40 25 14 14 28 25 32 25 7 0 125 119 159 161 11 14 31 47 45
75 14 27 28 51 33 52 4 2 10 21 13 43 4 21 10 39 15 39 5 0 11 23 15 50 4 28
10 50 15 50 5 0 9 45 9 100 0 55 -4 100 -9 100 -5 0 -11 14 -15 31 -3 18 -25
50 -52 76 l-45 45 -87 -4 c-76 -4 -124 -17 -142 -39 -3 -4 -16 -10 -30 -14
-14 -4 -28 -12 -32 -18 -7 -11 -38 14 -38 31 0 5 -10 20 -22 34 -13 14 -34 40
-48 57 -14 17 -30 31 -37 31 -7 0 -21 9 -30 20 -10 11 -23 20 -29 20 -7 0 -14
6 -16 13 -5 12 -202 21 -242 10z"/>
<path d="M2955 6811 c-18 -8 -70 -57 -102 -95 -7 -8 -15 -26 -19 -40 -3 -15
-10 -29 -15 -32 -12 -7 -12 -121 0 -128 4 -3 11 -24 15 -46 3 -22 10 -40 15
-40 5 0 12 -13 16 -30 4 -16 11 -30 16 -30 5 0 11 -11 15 -25 3 -14 10 -25 15
-25 5 0 9 -6 9 -14 0 -8 11 -23 25 -34 14 -11 25 -25 25 -30 0 -6 14 -24 31
-41 23 -24 39 -31 68 -31 31 0 40 -5 52 -27 8 -16 16 -30 20 -33 14 -13 39
-82 39 -109 0 -17 5 -31 10 -31 6 0 10 -7 10 -15 0 -8 -4 -15 -9 -15 -4 0 -11
-19 -14 -42 -3 -24 -11 -44 -17 -46 -7 -3 -20 -13 -28 -23 -9 -11 -22 -19 -29
-19 -7 0 -13 -4 -13 -10 0 -5 -11 -12 -25 -16 -14 -3 -25 -10 -25 -14 0 -4
-20 -16 -45 -27 -25 -10 -45 -21 -45 -25 0 -3 -13 -9 -30 -13 -16 -4 -30 -10
-30 -15 0 -5 -13 -11 -30 -15 -16 -4 -30 -10 -30 -15 0 -4 -11 -11 -25 -14
-14 -4 -25 -11 -25 -16 0 -6 -11 -15 -25 -20 -14 -5 -28 -17 -32 -26 -3 -9
-19 -30 -35 -46 -15 -16 -28 -35 -28 -43 0 -7 -6 -15 -12 -17 -18 -6 -18 -265
-1 -276 6 -4 15 -20 18 -35 4 -15 11 -27 15 -27 4 0 11 -11 14 -25 4 -14 11
-25 16 -25 6 0 10 -7 10 -15 0 -8 14 -27 32 -42 17 -16 56 -54 87 -85 31 -32
59 -58 63 -58 4 0 19 -11 34 -25 21 -19 29 -22 36 -13 4 7 8 16 8 20 0 7 -37
52 -62 76 -10 9 -18 22 -18 29 0 7 -4 13 -10 13 -5 0 -12 11 -16 24 -3 14 -12
27 -20 30 -8 3 -14 12 -14 21 0 8 -4 15 -10 15 -5 0 -10 5 -10 11 0 15 -32 83
-43 90 -5 3 -11 34 -14 68 -3 33 -10 61 -14 61 -5 0 -9 7 -9 15 0 8 4 15 9 15
4 0 11 17 14 39 4 30 16 49 52 82 26 24 55 48 66 53 10 5 19 13 19 17 0 4 14
10 30 14 17 4 30 10 30 15 0 5 14 11 30 15 17 4 30 10 30 15 0 4 18 10 39 14
21 3 41 13 45 21 3 8 12 15 21 15 8 0 15 4 15 9 0 5 10 13 22 17 26 8 80 63
117 119 24 37 26 48 26 151 0 93 -3 115 -17 131 -10 11 -18 25 -18 31 0 7 -4
12 -10 12 -5 0 -10 8 -10 18 0 10 -20 35 -45 57 -25 22 -45 49 -45 59 0 19 0
19 13 1 11 -14 22 -17 55 -13 23 4 48 12 56 20 8 7 28 24 45 38 17 14 31 28
31 33 0 4 11 18 24 30 14 13 28 35 31 50 4 15 11 27 16 27 5 0 12 18 15 40 4
22 10 40 15 40 13 0 11 125 -3 157 -21 49 -46 63 -119 63 -56 0 -70 -4 -93
-25 -17 -16 -26 -19 -26 -10 0 8 -23 38 -52 67 l-52 53 -70 2 c-39 2 -80 -1
-91 -6z m88 -197 c5 -9 17 -24 27 -34 10 -10 21 -28 25 -41 4 -12 18 -34 30
-47 22 -23 26 -24 57 -12 18 8 42 24 54 36 11 12 31 25 44 29 22 7 22 5 15
-31 -3 -22 -11 -40 -16 -42 -5 -2 -9 -10 -9 -17 0 -8 -22 -36 -50 -63 -37 -36
-50 -57 -50 -78 l0 -29 -17 33 c-9 19 -22 36 -30 39 -7 3 -13 11 -13 17 0 7
-14 28 -30 46 -17 19 -33 45 -36 57 -4 13 -10 23 -14 23 -5 0 -11 14 -15 30
-4 17 -11 30 -16 30 -5 0 -9 14 -9 30 0 17 -4 30 -10 30 -5 0 -10 5 -10 11 0
17 63 2 73 -17z"/>
<path d="M2173 4673 c-46 -2 -83 -7 -83 -12 0 -4 -55 -11 -122 -15 -68 -4
-125 -11 -128 -16 -3 -4 -39 -11 -80 -15 -41 -4 -79 -11 -85 -15 -5 -4 -36
-11 -67 -14 -32 -4 -58 -11 -58 -15 0 -5 -23 -11 -52 -14 -28 -4 -56 -11 -62
-17 -5 -5 -23 -10 -38 -10 -15 0 -28 -4 -28 -9 0 -5 -22 -12 -50 -16 -27 -4
-50 -11 -50 -15 0 -5 -20 -12 -45 -16 -25 -3 -45 -10 -45 -14 0 -5 -18 -11
-40 -15 -22 -4 -40 -10 -40 -15 0 -4 -16 -11 -35 -14 -19 -4 -35 -11 -35 -16
0 -6 -6 -10 -13 -10 -16 0 -139 -60 -147 -71 -3 -4 -18 -11 -33 -14 -15 -4
-27 -11 -27 -15 0 -5 -14 -11 -30 -15 -17 -4 -30 -11 -30 -16 0 -5 -11 -11
-24 -15 -14 -3 -27 -12 -30 -20 -3 -8 -12 -14 -21 -14 -8 0 -15 -4 -15 -10 0
-5 -6 -10 -14 -10 -7 0 -28 -14 -47 -30 -19 -17 -47 -42 -62 -55 -15 -14 -32
-25 -37 -25 -12 0 -230 -219 -230 -231 0 -4 -8 -16 -18 -26 -28 -28 -72 -91
-72 -102 0 -6 -4 -11 -9 -11 -5 0 -12 -13 -16 -30 -4 -16 -11 -30 -16 -30 -5
0 -9 -6 -9 -14 0 -8 -6 -21 -14 -28 -7 -8 -17 -29 -21 -46 -3 -18 -10 -32 -15
-32 -4 0 -11 -20 -14 -45 -4 -25 -11 -45 -16 -45 -5 0 -12 -29 -15 -65 -4 -36
-11 -65 -16 -65 -5 0 -9 -101 -9 -225 0 -124 4 -225 9 -225 5 0 12 -58 16
-130 4 -71 10 -132 15 -135 4 -2 11 -45 14 -95 4 -49 11 -90 16 -90 4 0 11
-32 15 -70 4 -39 11 -72 15 -75 5 -3 12 -30 15 -60 4 -30 11 -55 15 -55 4 0
11 -25 15 -55 3 -30 10 -55 15 -55 4 0 11 -20 14 -45 4 -24 11 -47 17 -50 5
-4 9 -17 9 -31 0 -13 4 -24 10 -24 5 0 13 -18 16 -40 4 -22 10 -40 14 -40 5 0
11 -18 15 -40 4 -22 10 -40 15 -40 4 0 11 -16 14 -35 4 -19 11 -35 16 -35 4 0
11 -18 15 -40 4 -22 11 -40 15 -40 5 0 11 -14 15 -30 4 -17 10 -30 13 -30 4 0
16 -20 27 -45 11 -25 23 -45 26 -45 4 0 10 -14 14 -30 4 -17 10 -30 13 -30 4
0 18 -25 32 -55 14 -30 28 -55 33 -55 4 0 7 -6 7 -14 0 -8 6 -21 12 -28 17
-19 36 -48 48 -75 5 -13 14 -23 20 -23 5 0 10 -7 10 -15 0 -8 4 -15 10 -15 5
0 12 -11 16 -24 3 -14 12 -27 20 -30 8 -3 14 -12 14 -21 0 -8 3 -15 8 -15 4 0
18 -17 32 -38 13 -20 35 -47 47 -59 13 -12 23 -25 23 -28 0 -4 20 -27 45 -52
25 -24 45 -49 45 -53 0 -17 275 -280 292 -280 5 0 23 -14 40 -30 16 -17 34
-30 39 -30 6 0 20 -11 33 -25 13 -14 28 -25 35 -25 6 0 11 -5 11 -10 0 -6 10
-15 23 -20 27 -12 56 -31 75 -48 7 -6 20 -12 28 -12 8 0 14 -4 14 -9 0 -5 13
-12 29 -16 16 -3 32 -13 35 -21 3 -8 15 -14 26 -14 11 0 20 -4 20 -9 0 -5 14
-12 30 -16 17 -4 30 -10 30 -13 0 -4 15 -13 33 -21 17 -8 51 -22 74 -32 23
-11 49 -19 57 -19 8 0 17 -4 20 -9 4 -5 24 -12 46 -16 22 -4 40 -10 40 -15 0
-4 25 -11 55 -15 30 -3 55 -10 55 -15 0 -5 30 -12 68 -16 37 -3 70 -12 74 -18
10 -16 706 -16 716 0 4 6 37 15 75 18 37 4 67 11 67 16 0 4 23 10 50 14 28 4
50 11 50 15 0 5 20 12 45 15 24 4 47 11 50 15 2 5 21 12 40 15 19 4 35 10 35
14 0 4 25 16 55 27 30 10 55 22 55 26 0 4 14 10 30 14 17 4 30 10 30 15 0 4
11 11 25 14 14 4 25 10 25 15 0 5 14 12 30 16 17 4 30 10 30 15 0 4 11 11 25
14 14 4 25 11 25 16 0 6 7 10 15 10 9 0 18 6 21 14 3 8 16 17 30 20 13 4 24
11 24 16 0 6 6 10 14 10 8 0 16 7 20 15 3 8 10 15 16 15 12 0 32 15 58 43 9 9
20 17 25 17 5 0 27 18 48 40 22 22 41 40 44 40 16 0 235 218 235 234 0 3 19
25 43 50 79 84 107 119 107 133 0 7 4 13 9 13 5 0 13 10 17 23 6 21 21 37 36
37 3 0 20 -13 36 -30 17 -17 33 -30 37 -30 3 0 17 -12 31 -27 25 -27 55 -48
87 -59 9 -3 17 -10 17 -14 0 -4 12 -11 26 -14 15 -4 33 -14 41 -21 8 -8 23
-15 34 -15 10 0 19 -4 19 -9 0 -5 23 -12 50 -16 28 -4 50 -10 50 -15 0 -20
220 -43 304 -31 123 18 146 23 146 32 0 5 18 12 40 15 22 4 40 10 40 14 0 5
14 11 30 15 17 4 30 11 30 16 0 5 11 11 24 15 14 3 27 12 30 20 3 8 11 14 17
14 6 0 21 10 33 22 12 13 42 39 68 58 25 19 57 51 69 70 13 19 34 44 47 56 12
12 22 25 22 30 1 5 14 25 30 44 17 19 30 40 30 47 0 7 4 13 10 13 5 0 12 11
16 25 3 14 10 25 14 25 5 0 11 14 15 30 4 17 10 30 15 30 4 0 10 18 14 39 3
22 11 41 17 43 5 2 13 22 16 46 3 23 9 42 14 42 4 0 11 25 14 55 4 30 11 55
16 55 12 0 12 367 0 374 -4 3 -11 28 -15 56 -4 27 -10 50 -15 50 -5 0 -11 18
-15 40 -3 22 -10 40 -15 40 -5 0 -13 14 -16 32 -4 17 -14 38 -21 46 -8 7 -14
20 -14 28 0 8 -4 14 -9 14 -5 0 -12 8 -15 18 -3 10 -22 35 -41 55 -19 20 -35
40 -35 45 0 4 -18 23 -41 42 -22 19 -53 46 -68 60 -31 27 -58 46 -81 57 -8 4
-21 13 -28 20 -7 7 -20 13 -28 13 -8 0 -14 5 -14 10 0 6 -6 10 -12 10 -7 0
-26 7 -41 15 -15 8 -43 17 -62 21 -19 3 -35 10 -35 15 0 4 -31 11 -70 15 -39
3 -70 11 -70 15 0 5 -42 9 -93 9 l-93 0 10 78 c5 42 14 80 19 84 15 9 15 437
1 446 -6 4 -15 31 -19 60 -4 28 -11 52 -16 52 -5 0 -9 11 -9 25 0 14 -4 25
-10 25 -5 0 -10 8 -10 18 -1 9 -9 35 -20 57 -11 22 -19 46 -20 53 0 6 -4 12
-9 12 -5 0 -12 13 -16 29 -3 16 -13 32 -21 35 -8 3 -14 12 -14 21 0 8 -4 15
-10 15 -5 0 -10 6 -10 13 0 15 -30 54 -82 110 -21 22 -38 43 -38 48 0 11 -64
75 -109 109 -18 14 -48 40 -65 58 -18 17 -37 32 -41 32 -4 0 -18 11 -31 25
-13 14 -28 25 -34 25 -5 0 -10 4 -10 9 0 5 -10 13 -22 17 -12 3 -28 13 -36 20
-7 8 -20 14 -28 14 -8 0 -14 5 -14 10 0 6 -7 10 -15 10 -9 0 -18 6 -21 14 -3
8 -19 18 -35 21 -16 4 -29 11 -29 16 0 5 -11 11 -25 15 -14 3 -25 10 -25 15 0
5 -11 9 -25 9 -14 0 -25 4 -25 9 0 12 -50 37 -90 46 -16 4 -30 11 -30 16 0 5
-18 12 -40 15 -22 4 -40 10 -40 15 0 4 -16 11 -35 15 -19 3 -35 10 -35 14 0 4
-21 11 -47 15 -27 4 -51 11 -54 17 -3 5 -25 12 -48 15 -22 3 -41 9 -41 13 0 4
-12 10 -27 13 -75 16 -139 33 -150 40 -6 4 -39 10 -72 13 -34 4 -61 10 -61 14
0 5 -37 11 -82 15 -46 4 -85 11 -88 16 -3 5 -57 11 -120 15 -63 4 -118 11
-121 17 -7 10 -600 18 -756 10z m592 -293 c168 -11 365 -32 380 -41 6 -4 43
-10 83 -14 39 -4 74 -11 77 -15 3 -4 32 -11 65 -15 33 -4 63 -11 66 -16 3 -5
14 -9 24 -9 11 0 41 -7 67 -15 188 -59 252 -80 278 -91 78 -32 106 -45 190
-85 318 -154 563 -367 655 -569 11 -25 25 -53 30 -62 5 -9 13 -35 16 -58 4
-22 11 -43 15 -46 15 -9 9 -156 -10 -224 -26 -93 -68 -177 -134 -267 -43 -59
-195 -205 -249 -239 -20 -13 -39 -28 -43 -34 -4 -6 -17 -16 -28 -21 -23 -10
-34 -17 -102 -60 -22 -13 -94 -51 -160 -83 -66 -32 -133 -64 -148 -72 -16 -8
-35 -14 -44 -14 -8 0 -29 -6 -46 -14 -18 -8 -77 -29 -132 -46 -55 -17 -114
-35 -131 -40 -38 -12 -112 -28 -189 -41 -33 -6 -67 -13 -75 -16 -23 -10 -185
-31 -370 -48 -350 -32 -820 -8 -1135 59 -38 8 -92 20 -119 26 -28 5 -64 14
-80 20 -17 5 -76 23 -131 40 -55 17 -108 35 -117 40 -10 6 -23 10 -30 10 -7 1
-31 9 -53 20 -22 11 -45 19 -51 20 -15 0 -231 108 -279 139 -58 37 -78 49 -95
57 -30 15 -130 96 -206 167 -67 63 -194 215 -194 232 0 3 -11 31 -25 62 -75
162 -71 314 12 488 94 198 297 384 583 537 25 13 54 29 65 36 11 6 36 18 55
26 19 8 58 24 85 36 77 32 83 35 185 67 150 48 201 63 221 63 10 0 20 4 23 9
3 5 31 12 62 16 32 4 64 11 73 16 15 8 38 12 276 45 215 30 527 39 790 24z
m2413 -2186 c4 -6 18 -15 31 -19 13 -4 34 -17 47 -29 30 -29 67 -56 75 -56 4
0 10 -11 13 -25 4 -14 11 -25 16 -25 6 0 10 -7 10 -15 0 -9 6 -18 14 -21 9 -3
17 -27 22 -60 3 -30 10 -54 15 -54 12 0 12 -127 0 -134 -4 -3 -11 -30 -15 -59
-3 -30 -13 -67 -21 -83 -8 -16 -15 -36 -15 -45 0 -9 -7 -22 -15 -29 -8 -7 -15
-19 -15 -26 0 -8 -3 -14 -8 -14 -4 0 -13 -13 -20 -30 -15 -33 -134 -160 -150
-160 -6 0 -15 -8 -21 -17 -8 -15 -25 -18 -116 -18 -70 0 -108 4 -113 12 -4 6
-21 15 -37 19 -16 4 -35 12 -41 18 -6 6 -22 18 -34 26 -41 28 -57 45 -64 68
-4 12 -12 22 -17 22 -5 0 -9 7 -9 15 0 7 -8 18 -17 23 -13 8 -17 24 -17 77 0
39 5 69 12 74 6 3 14 26 18 49 4 23 10 42 14 42 5 0 11 27 15 60 4 33 11 60
16 60 5 0 9 13 9 29 0 17 4 32 9 35 5 3 12 33 16 66 4 33 11 60 15 60 4 0 11
26 15 58 6 50 11 61 35 75 15 9 35 17 44 17 9 0 16 4 16 9 0 16 31 20 148 18
69 -1 116 -6 120 -13z"/>
<path d="M2768 4004 c-4 -3 -35 -12 -70 -19 -109 -23 -163 -37 -173 -45 -5 -4
-26 -11 -45 -15 -19 -4 -39 -11 -45 -14 -5 -4 -32 -16 -60 -26 -48 -17 -62
-23 -150 -59 -22 -10 -49 -21 -60 -26 -89 -37 -375 -177 -500 -245 -44 -24
-100 -54 -125 -66 -25 -13 -106 -59 -180 -104 -74 -45 -142 -84 -150 -88 -36
-17 -74 -44 -77 -54 -4 -10 40 -41 257 -182 39 -25 61 -38 115 -66 28 -15 86
-46 130 -70 153 -83 440 -223 545 -265 30 -12 69 -28 85 -35 86 -38 104 -45
118 -45 9 0 18 -4 21 -9 3 -5 23 -12 43 -16 21 -4 43 -10 48 -14 9 -7 101 -34
205 -61 137 -35 382 -46 500 -22 171 35 307 149 327 274 3 21 10 41 14 44 13
8 11 54 -6 99 -46 130 -107 191 -280 280 -65 33 -116 65 -115 70 1 6 23 18 48
28 197 75 311 154 353 245 12 26 25 55 30 64 12 24 11 95 -1 103 -5 3 -10 19
-10 35 0 58 -71 166 -136 207 -47 31 -144 72 -194 84 -58 13 -451 24 -462 13z
m202 -242 c72 -18 125 -48 169 -98 22 -26 43 -61 47 -80 3 -19 10 -37 15 -40
12 -7 12 -71 0 -78 -5 -3 -12 -18 -16 -33 -14 -56 -95 -115 -255 -185 l-35
-15 60 -29 c198 -95 268 -220 198 -354 -26 -50 -97 -120 -123 -120 -6 0 -27
-7 -45 -16 -58 -27 -400 -9 -480 26 -11 5 -31 12 -45 15 -32 8 -236 82 -275
100 -16 7 -48 21 -70 30 -63 26 -130 58 -275 130 -189 94 -236 120 -275 149
-18 14 -38 26 -43 26 -5 0 -17 9 -26 19 -17 18 -14 21 70 72 47 30 98 62 113
71 14 9 53 30 86 47 33 17 85 45 115 62 69 40 153 82 205 105 22 9 67 29 100
44 33 15 96 42 140 59 44 17 88 36 97 41 10 6 26 10 35 10 10 0 30 7 45 14 16
8 49 18 75 22 27 3 55 10 63 15 20 12 273 5 330 -9z"/>
</g>
</svg>
